<svg xmlns="http://www.w3.org/2000/svg" viewBox="0 0 782.47 202.84"><defs><style>.cls-1{fill:#f6f6f6;}</style></defs><g id="Capa_2" data-name="Capa 2"><g id="Capa_1-2" data-name="Capa 1"><path class="cls-1" d="M147.29,133.3a10.08,10.08,0,1,0-10.08,10.08A10.09,10.09,0,0,0,147.29,133.3Z"/><path class="cls-1" d="M59.55,76.58A10.09,10.09,0,1,0,49.46,86.66,10.1,10.1,0,0,0,59.55,76.58Z"/><path class="cls-1" d="M101.42,0A101.5,101.5,0,0,0,4,129.57L32,90.17a22.12,22.12,0,1,1,17.45,8.55,22.31,22.31,0,0,1-4.58-.48L10.54,146.47a101.72,101.72,0,0,0,22.73,30.06L101,79.38a22.19,22.19,0,1,1,12.24,9l-68,97.53a100.6,100.6,0,0,0,34.67,14.68l39-54.78a22.13,22.13,0,1,1,18.29,9.68,22.26,22.26,0,0,1-6-.83L97,202.73c1.47.07,3,.11,4.45.11A101.42,101.42,0,0,0,101.42,0Z"/><path class="cls-1" d="M129.44,67.07a10.08,10.08,0,1,0-10.08,10.08A10.09,10.09,0,0,0,129.44,67.07Z"/><path class="cls-1" d="M299.62,152.69l-1.68-13.93H258.76l-8.26,13.93H215.45L279.73,50.15h35.66l16.83,102.54Zm-8.26-69.33-17.3,29.23h20.67Z"/><path class="cls-1" d="M430,118.1l20.05,34.59H415l-17.45-31.53H389l-7.19,31.53H350.13L373.7,50.15h51.73c21.57,0,34.28,11.32,34.28,29.69C459.71,97.59,447.92,112,430,118.1ZM411.65,96.67c9.64,0,16.07-5.51,16.07-12.39,0-5.36-4-8.42-10.71-8.42h-17.6l-4.75,20.81Z"/><path class="cls-1" d="M513,89.63H559l-5.36,23.57H507.61l-3.06,13.32h51l-6.12,26.17H466.74L490.47,50.15h81.88l-6,26.17H516Z"/><path class="cls-1" d="M645.8,50.15c20.51,0,34.59,11,34.59,30.45,0,24.34-20.2,43.93-49.58,43.93H610.3l-6.43,28.16H572.19L595.76,50.15ZM631.42,100c8.72,0,17-6,17-14.54,0-5.81-3.83-9.64-9.95-9.64h-17L616,100Z"/><path class="cls-1" d="M749.87,152.69l-1.68-13.93H709l-8.26,13.93h-35L730,50.15h35.66l16.83,102.54Zm-8.26-69.33-17.3,29.23H745Z"/><path class="cls-1" d="M565.1,174.36c0,6.64-4.6,11.21-11.76,11.21h-8.4V163.14h8.4C560.5,163.14,565.1,167.68,565.1,174.36ZM553,180.84c4.12,0,6.55-2.36,6.55-6.48s-2.43-6.55-6.55-6.55H550.4v13Z"/><path class="cls-1" d="M587.33,163.14h5.47v22.43h-5.47Z"/><path class="cls-1" d="M636.85,170.23h-6a4.69,4.69,0,0,0-4.4-2.3c-3.52,0-5.85,2.5-5.85,6.39,0,4.16,2.36,6.59,6.29,6.59a5.39,5.39,0,0,0,5.44-4h-6.94v-4h11.89V178a11,11,0,0,1-10.8,7.73c-6.71,0-11.44-4.7-11.44-11.41s4.7-11.43,11.41-11.43C631.77,162.89,635.67,165.63,636.85,170.23Z"/><path class="cls-1" d="M659.44,163.14h5.46v22.43h-5.46Z"/><path class="cls-1" d="M686.82,163.14h17.35v4.38h-5.95v18h-5.46v-18h-5.94Z"/><path class="cls-1" d="M740,181.61h-8.37l-1.34,4h-5.72l8.12-22.43h6.32l8.12,22.43h-5.78Zm-4.18-12.43-2.75,8.21h5.53Z"/><path class="cls-1" d="M774.26,163.14v18.21h7.16v4.22H768.8V163.14Z"/></g></g></svg>